<svg viewBox="0 0 54 24" fill="none" xmlns="http://www.w3.org/2000/svg">
<path d="M2 13.5C1.17157 13.5 0.5 12.8284 0.5 12C0.5 11.1716 1.17157 10.5 2 10.5L2 13.5ZM53.0607 10.9393C53.6464 11.5251 53.6464 12.4749 53.0607 13.0607L43.5147 22.6066C42.9289 23.1924 41.9792 23.1924 41.3934 22.6066C40.8076 22.0208 40.8076 21.0711 41.3934 20.4853L49.8787 12L41.3934 3.51472C40.8076 2.92893 40.8076 1.97918 41.3934 1.39339C41.9792 0.807608 42.9289 0.807608 43.5147 1.39339L53.0607 10.9393ZM2 10.5L52 10.5L52 13.5L2 13.5L2 10.5Z" fill="currentColor"/>
</svg>
